PathFileType	4	(X/Y/Z)	Run_300 01
DataRate	CameraRate	NumFrames	NumMarkers	Units	OrigDataRate	OrigDataStartFrame	OrigNumFrames
120	120	4	41	mm	120	136	125
Frame#	Time	LASI			RASI			LPSI			RPSI			RTH1			RTH3			LTH1			LTH2			LTH3			RTB1			RTB2			RTB3			LTB1			LTB2			LTB3			RCAL			RTOE			RMT5			LCAL			LTOE			LMT5			LACR			RACR			CLAV			C7			RUA1			RUA2			RUA3			RLEL			RMEL			LUA1			LUA2			LUA3			LLEL			LMEL			RFAsuperior			RFAradius			RFAulna			LFAsuperior			LFAradius			LFAulna			
		X1	Y1	Z1	X2	Y2	Z2	X3	Y3	Z3	X4	Y4	Z4	X5	Y5	Z5	X6	Y6	Z6	X7	Y7	Z7	X8	Y8	Z8	X9	Y9	Z9	X10	Y10	Z10	X11	Y11	Z11	X12	Y12	Z12	X13	Y13	Z13	X14	Y14	Z14	X15	Y15	Z15	X16	Y16	Z16	X17	Y17	Z17	X18	Y18	Z18	X19	Y19	Z19	X20	Y20	Z20	X21	Y21	Z21	X22	Y22	Z22	X23	Y23	Z23	X24	Y24	Z24	X25	Y25	Z25	X26	Y26	Z26	X27	Y27	Z27	X28	Y28	Z28	X29	Y29	Z29	X30	Y30	Z30	X31	Y31	Z31	X32	Y32	Z32	X33	Y33	Z33	X34	Y34	Z34	X35	Y35	Z35	X36	Y36	Z36	X37	Y37	Z37	X38	Y38	Z38	X39	Y39	Z39	X40	Y40	Z40	X41	Y41	Z41	

136	1.625	911.001452	1038.732189	-400.299973	926.257267	1022.92034	-172.226147	757.4098300000001	1071.553023	-327.991706	759.638226	1074.934774	-230.748871	835.16368	863.915424	-112.458103	763.660879	610.071519	-151.476808	894.290152	846.495345	-459.089454	976.364346	758.934804	-435.451766	943.920854	635.100534	-396.710565	635.434792	431.068166	-216.772143	563.339417	448.305829	-152.358564	511.682508	404.915928	-216.148387	1047.865148	434.577281	-311.156285	1022.433031	350.161896	-381.342461	1066.904849	266.834093	-303.987869	340.407776	458.119869	-215.752252	340.100179	250.553776	-256.488956	308.701216	263.970115	-165.998318	1001.973477	97.06001999999999	-295.425749	1194.542775	170.512984	-268.669706	1196.61953	133.565812	-352.653157	859.929395	1496.170005	-470.294933	921.81508	1492.958322	-94.546229	948.735538	1479.37303	-271.424187	827.8893	1541.755257	-288.297012	869.772791	1366.402185	-32.127059	794.322754	1370.99748	-32.720887	831.13214	1295.751309	4.765471	796.3301300000001	1232.218375	26.591906	745.97075	1218.160202	-39.291474	756.715746	1407.874196	-524.813878	683.113049	1392.65181	-498.833788	716.106222	1331.45295	-541.267371	641.356977	1283.419187	-553.1152939999999	617.434946	1288.676138	-469.762154	894.326824	1178.950832	-34.089093	960.286788	1142.477787	-130.216025	950.168873	1083.691101	-92.650041	740.423621	1200.992454	-538.462359	839.525358	1169.411283	-462.854661	818.084368	1119.942854	-505.304188	
137	1.633333	909.2369650000001	1032.96615	-400.612587	926.482809	1015.890016	-171.728199	756.119948	1063.912132	-327.003207	758.151552	1066.431182	-229.441602	838.376262	855.4547229999999	-112.238872	773.180559	600.255388	-149.774045	892.861822	841.0426	-457.488449	976.236167	755.8953780000001	-433.074261	943.9654849999999	629.64877	-396.292937	645.013457	427.245376	-214.473637	573.778101	447.977254	-150.830399	520.365764	408.239745	-215.251348	1044.396459	426.633241	-309.837307	1014.32653	342.475725	-379.082786	1057.71139	258.512909	-301.570616	351.360393	470.263497	-216.094051	343.089463	262.369978	-253.759253	312.392985	278.359546	-163.114058	987.093408	95.145475	-291.923974	1181.796899	156.945655	-264.406488	1182.593271	119.883503	-348.077684	862.473515	1489.036606	-471.526846	921.019593	1486.180005	-94.93568399999999	949.1451070000001	1472.25121	-271.595384	828.674297	1535.212646	-289.467003	866.9067690000001	1360.354119	-32.891845	791.648776	1366.47596	-33.986841	826.843416	1289.833327	2.666981	790.4527399999999	1227.703181	25.650063	740.7814519999999	1214.038869	-40.804156	760.2552930000001	1398.975266	-526.662425	686.493116	1383.098821	-501.85063	720.819776	1321.69332	-542.843687	646.45953	1273.206767	-555.694198	621.926034	1278.31561	-472.480194	887.391407	1169.738459	-32.466817	953.604045	1128.466301	-126.561091	940.530123	1070.947234	-88.026568	745.794605	1191.037073	-540.641108	844.764922	1160.083419	-464.496413	823.586407	1110.577779	-507.08637	
138	1.641667	907.5550030000001	1026.694952	-401.488109	927.115241	1007.815814	-171.854169	754.72722	1055.557293	-325.766595	757.458492	1057.06094	-228.022662	841.12397	846.399596	-111.82687	783.102594	589.953333	-147.914458	891.60068	835.004727	-455.518284	976.473473	751.852896	-430.402507	944.278367	623.243933	-396.014433	655.43544	422.703224	-211.32576	585.144908	447.339761	-148.998196	530.497025	410.97747	-214.16505	1041.226173	418.120131	-308.538997	1005.469375	334.250335	-376.628076	1048.165821	249.70468	-298.87122	363.893502	481.285795	-216.392869	348.506767	273.367669	-251.092198	318.472295	291.754123	-160.293153	971.1336669999999	95.273695	-288.674133	1168.126177	140.451112	-259.640926	1167.14973	104.428382	-343.307279	865.125143	1481.082942	-472.753708	919.999141	1478.624286	-95.14148299999999	949.503586	1464.42105	-271.704668	829.34306	1527.963159	-290.530385	863.61056	1353.614698	-33.54334	788.560101	1361.208959	-35.227865	822.0901249999999	1283.320939	0.70312	784.117803	1222.642969	24.754498	734.893337	1209.448027	-42.186518	764.07097	1389.082159	-528.4463479999999	690.036387	1372.590828	-505.007467	725.8681	1310.991327	-544.493413	651.899362	1262.154908	-558.485597	626.66084	1267.086063	-475.464931	879.808735	1159.900197	-30.573951	945.940182	1113.566175	-122.628203	930.059934	1057.753587	-82.82547599999999	751.593024	1180.374303	-542.927834	850.341584	1150.14129	-466.087482	829.497569	1100.605794	-508.789221	
139	1.65	905.845578	1019.901891	-402.623311	927.963431	999.0111470000001	-172.479826	753.012357	1046.643871	-324.407743	757.420263	1047.059806	-226.660604	843.5423019999999	836.859934	-111.350262	793.472101	579.403598	-146.005733	890.445976	828.203662	-454.047863	976.746109	746.117125	-428.262221	944.469308	616.1143489999999	-395.315021	666.822554	417.88619	-207.748227	597.504229	446.431036	-146.942515	541.962028	413.008144	-212.516153	1038.412331	409.588371	-306.756981	997.396169	326.156362	-373.589314	1038.539406	240.968879	-295.388633	377.894492	491.147768	-216.540735	356.194187	283.368177	-248.382408	326.772073	303.9856	-157.545953	954.496451	96.857399	-285.486101	1153.70718	122.38176	-254.782698	1150.442397	89.097404	-339.115702	867.939945	1472.319676	-474.019845	918.721771	1470.398483	-95.15478400000001	949.877625	1455.997398	-271.753055	829.808835	1520.100652	-291.555517	859.861666	1346.225719	-34.084875	785.017273	1355.224328	-36.500499	816.820973	1276.285977	-1.067044	777.345771	1217.082827	23.869327	728.351802	1204.386424	-43.458238	768.141259	1378.252318	-530.224066	693.783856	1361.171669	-508.315735	731.247579	1299.443116	-546.255527	657.671271	1250.305159	-561.460544	631.571306	1255.110549	-478.69182	871.586169	1149.528969	-28.408299	937.3606119999999	1098.02888	-118.252864	918.740201	1044.178995	-77.093234	757.818213	1169.086801	-545.259037	856.251723	1139.710585	-467.587144	835.883464	1090.141588	-510.391849	
